<mxfile host="app.diagrams.net" agent="Mozilla/5.0 (X11; Linux x86_64) AppleWebKit/537.36 (KHTML, like Gecko) Chrome/128.0.0.0 Safari/537.36" version="24.7.14">
  <diagram name="PÃ¡gina-1" id="lMCiCQGlookweoDm1MbY">
    <mxGraphModel dx="1413" dy="354" grid="0" gridSize="10" guides="1" tooltips="1" connect="1" arrows="1" fold="1" page="0" pageScale="1" pageWidth="827" pageHeight="1169" math="0" shadow="0">
      <root>
        <mxCell id="0" />
        <mxCell id="1" parent="0" />
        <mxCell id="VW0d0hes_iw_Q88u06iS-4" value="E1" style="html=1;overflow=block;blockSpacing=1;whiteSpace=wrap;fontSize=16.7;align=center;spacing=9;strokeColor=#unset;rounded=1;absoluteArcSize=1;arcSize=9;fillColor=#FFFFFF;strokeWidth=NaN;lucidId=a49.3jSfNW3m;shadow=1;" vertex="1" parent="1">
          <mxGeometry x="152" y="668" width="58" height="37" as="geometry" />
        </mxCell>
        <mxCell id="VW0d0hes_iw_Q88u06iS-5" value="E9" style="html=1;overflow=block;blockSpacing=1;whiteSpace=wrap;fontSize=16.7;align=center;spacing=9;strokeColor=#unset;rounded=1;absoluteArcSize=1;arcSize=9;fillColor=#FFFFFF;strokeWidth=NaN;lucidId=v49.yqgwQpGt;shadow=1;" vertex="1" parent="1">
          <mxGeometry x="300" y="668" width="58" height="37" as="geometry" />
        </mxCell>
        <mxCell id="VW0d0hes_iw_Q88u06iS-6" value="" style="html=1;jettySize=18;whiteSpace=wrap;fontSize=13;strokeColor=#5E5E5E;strokeWidth=1.5;rounded=1;arcSize=12;edgeStyle=orthogonalEdgeStyle;startArrow=ERone;startSize=16;endArrow=ERone;endSize=16;exitX=-0.013;exitY=0.5;exitPerimeter=0;entryX=1.013;entryY=0.5;entryPerimeter=0;lucidId=D69._yKPUCEd;fillColor=#FFFFFF;shadow=1;" edge="1" parent="1" source="VW0d0hes_iw_Q88u06iS-5" target="VW0d0hes_iw_Q88u06iS-4">
          <mxGeometry width="100" height="100" relative="1" as="geometry">
            <Array as="points" />
          </mxGeometry>
        </mxCell>
        <mxCell id="VW0d0hes_iw_Q88u06iS-7" value="E1" style="html=1;overflow=block;blockSpacing=1;whiteSpace=wrap;fontSize=16.7;align=center;spacing=9;strokeColor=#unset;rounded=1;absoluteArcSize=1;arcSize=9;fillColor=#FFFFFF;strokeWidth=NaN;lucidId=K_9.~rIl6Zaw;shadow=1;" vertex="1" parent="1">
          <mxGeometry x="152" y="720" width="58" height="37" as="geometry" />
        </mxCell>
        <mxCell id="VW0d0hes_iw_Q88u06iS-8" value="E10" style="html=1;overflow=block;blockSpacing=1;whiteSpace=wrap;fontSize=16.7;align=center;spacing=9;strokeColor=#unset;rounded=1;absoluteArcSize=1;arcSize=9;fillColor=#FFFFFF;strokeWidth=NaN;lucidId=K_9.1wFLXOA_;shadow=1;" vertex="1" parent="1">
          <mxGeometry x="300" y="720" width="58" height="37" as="geometry" />
        </mxCell>
        <mxCell id="VW0d0hes_iw_Q88u06iS-9" value="" style="html=1;jettySize=18;whiteSpace=wrap;fontSize=13;strokeColor=#5E5E5E;strokeWidth=1.5;rounded=1;arcSize=12;edgeStyle=orthogonalEdgeStyle;startArrow=ERzeroToOne;startSize=10;endArrow=ERone;endSize=16;exitX=-0.013;exitY=0.5;exitPerimeter=0;entryX=1.013;entryY=0.5;entryPerimeter=0;lucidId=K_9.NSXxFif3;fillColor=#FFFFFF;shadow=1;" edge="1" parent="1" source="VW0d0hes_iw_Q88u06iS-8" target="VW0d0hes_iw_Q88u06iS-7">
          <mxGeometry width="100" height="100" relative="1" as="geometry">
            <Array as="points" />
          </mxGeometry>
        </mxCell>
        <mxCell id="VW0d0hes_iw_Q88u06iS-10" value="E1" style="html=1;overflow=block;blockSpacing=1;whiteSpace=wrap;fontSize=16.7;align=center;spacing=9;strokeColor=#unset;rounded=1;absoluteArcSize=1;arcSize=9;fillColor=#FFFFFF;strokeWidth=NaN;lucidId=6_9.~jnDbWiA;shadow=1;" vertex="1" parent="1">
          <mxGeometry x="152" y="772" width="58" height="37" as="geometry" />
        </mxCell>
        <mxCell id="VW0d0hes_iw_Q88u06iS-11" value="E11" style="html=1;overflow=block;blockSpacing=1;whiteSpace=wrap;fontSize=16.7;align=center;spacing=9;strokeColor=#unset;rounded=1;absoluteArcSize=1;arcSize=9;fillColor=#FFFFFF;strokeWidth=NaN;lucidId=6_9.4NvaiLBG;shadow=1;" vertex="1" parent="1">
          <mxGeometry x="300" y="772" width="58" height="37" as="geometry" />
        </mxCell>
        <mxCell id="VW0d0hes_iw_Q88u06iS-12" value="" style="html=1;jettySize=18;whiteSpace=wrap;fontSize=13;strokeColor=#5E5E5E;strokeWidth=1.5;rounded=1;arcSize=12;edgeStyle=orthogonalEdgeStyle;startArrow=ERoneToMany;startSize=10;endArrow=ERone;endSize=16;exitX=-0.013;exitY=0.5;exitPerimeter=0;entryX=1.013;entryY=0.5;entryPerimeter=0;lucidId=6_9.0U2wq2EW;fillColor=#FFFFFF;shadow=1;" edge="1" parent="1" source="VW0d0hes_iw_Q88u06iS-11" target="VW0d0hes_iw_Q88u06iS-10">
          <mxGeometry width="100" height="100" relative="1" as="geometry">
            <Array as="points" />
          </mxGeometry>
        </mxCell>
        <mxCell id="VW0d0hes_iw_Q88u06iS-13" value="E1" style="html=1;overflow=block;blockSpacing=1;whiteSpace=wrap;fontSize=16.7;align=center;spacing=9;strokeColor=#unset;rounded=1;absoluteArcSize=1;arcSize=9;fillColor=#FFFFFF;strokeWidth=NaN;lucidId=m.9.YHpLkeR~;shadow=1;" vertex="1" parent="1">
          <mxGeometry x="152" y="823" width="58" height="37" as="geometry" />
        </mxCell>
        <mxCell id="VW0d0hes_iw_Q88u06iS-14" value="E12" style="html=1;overflow=block;blockSpacing=1;whiteSpace=wrap;fontSize=16.7;align=center;spacing=9;strokeColor=#unset;rounded=1;absoluteArcSize=1;arcSize=9;fillColor=#FFFFFF;strokeWidth=NaN;lucidId=m.9.MfVfY2YU;shadow=1;" vertex="1" parent="1">
          <mxGeometry x="300" y="823" width="58" height="37" as="geometry" />
        </mxCell>
        <mxCell id="VW0d0hes_iw_Q88u06iS-15" value="" style="html=1;jettySize=18;whiteSpace=wrap;fontSize=13;strokeColor=#5E5E5E;strokeWidth=1.5;rounded=1;arcSize=12;edgeStyle=orthogonalEdgeStyle;startArrow=ERzeroToMany;startSize=10;endArrow=ERone;endSize=16;exitX=-0.013;exitY=0.5;exitPerimeter=0;entryX=1.013;entryY=0.5;entryPerimeter=0;lucidId=m.9.k3JNbqy.;fillColor=#FFFFFF;shadow=1;" edge="1" parent="1" source="VW0d0hes_iw_Q88u06iS-14" target="VW0d0hes_iw_Q88u06iS-13">
          <mxGeometry width="100" height="100" relative="1" as="geometry">
            <Array as="points" />
          </mxGeometry>
        </mxCell>
        <mxCell id="VW0d0hes_iw_Q88u06iS-16" value="E2" style="html=1;overflow=block;blockSpacing=1;whiteSpace=wrap;fontSize=16.7;align=center;spacing=9;strokeColor=#unset;rounded=1;absoluteArcSize=1;arcSize=9;fillColor=#FFFFFF;strokeWidth=NaN;lucidId=gb-.z7cA_7DU;shadow=1;" vertex="1" parent="1">
          <mxGeometry x="152" y="927" width="58" height="37" as="geometry" />
        </mxCell>
        <mxCell id="VW0d0hes_iw_Q88u06iS-17" value="E9" style="html=1;overflow=block;blockSpacing=1;whiteSpace=wrap;fontSize=16.7;align=center;spacing=9;strokeColor=#unset;rounded=1;absoluteArcSize=1;arcSize=9;fillColor=#FFFFFF;strokeWidth=NaN;lucidId=gb-.lc1AbB2K;shadow=1;" vertex="1" parent="1">
          <mxGeometry x="300" y="927" width="58" height="37" as="geometry" />
        </mxCell>
        <mxCell id="VW0d0hes_iw_Q88u06iS-19" value="E2" style="html=1;overflow=block;blockSpacing=1;whiteSpace=wrap;fontSize=16.7;align=center;spacing=9;strokeColor=#unset;rounded=1;absoluteArcSize=1;arcSize=9;fillColor=#FFFFFF;strokeWidth=NaN;lucidId=gb-.fF-rcX95;shadow=1;" vertex="1" parent="1">
          <mxGeometry x="152" y="978" width="58" height="37" as="geometry" />
        </mxCell>
        <mxCell id="VW0d0hes_iw_Q88u06iS-20" value="E10" style="html=1;overflow=block;blockSpacing=1;whiteSpace=wrap;fontSize=16.7;align=center;spacing=9;strokeColor=#unset;rounded=1;absoluteArcSize=1;arcSize=9;fillColor=#FFFFFF;strokeWidth=NaN;lucidId=gb-.aFV4El0-;shadow=1;" vertex="1" parent="1">
          <mxGeometry x="300" y="978" width="58" height="37" as="geometry" />
        </mxCell>
        <mxCell id="VW0d0hes_iw_Q88u06iS-22" value="E2" style="html=1;overflow=block;blockSpacing=1;whiteSpace=wrap;fontSize=16.7;align=center;spacing=9;strokeColor=#unset;rounded=1;absoluteArcSize=1;arcSize=9;fillColor=#FFFFFF;strokeWidth=NaN;lucidId=gb-.QJ6YCIIF;shadow=1;" vertex="1" parent="1">
          <mxGeometry x="152" y="1030" width="58" height="37" as="geometry" />
        </mxCell>
        <mxCell id="VW0d0hes_iw_Q88u06iS-23" value="E11" style="html=1;overflow=block;blockSpacing=1;whiteSpace=wrap;fontSize=16.7;align=center;spacing=9;strokeColor=#unset;rounded=1;absoluteArcSize=1;arcSize=9;fillColor=#FFFFFF;strokeWidth=NaN;lucidId=gb-.yOQ.quRR;shadow=1;" vertex="1" parent="1">
          <mxGeometry x="300" y="1030" width="58" height="37" as="geometry" />
        </mxCell>
        <mxCell id="VW0d0hes_iw_Q88u06iS-24" value="" style="html=1;jettySize=18;whiteSpace=wrap;fontSize=13;strokeColor=#5E5E5E;strokeWidth=1.5;rounded=1;arcSize=12;edgeStyle=orthogonalEdgeStyle;startArrow=ERoneToMany;startSize=10;endArrow=ERone;endSize=16;exitX=-0.013;exitY=0.5;exitPerimeter=0;entryX=1.013;entryY=0.5;entryPerimeter=0;lucidId=gb-.RU2Mtd.V;fillColor=#FFFFFF;shadow=1;" edge="1" parent="1" source="VW0d0hes_iw_Q88u06iS-23" target="VW0d0hes_iw_Q88u06iS-22">
          <mxGeometry width="100" height="100" relative="1" as="geometry">
            <Array as="points" />
          </mxGeometry>
        </mxCell>
        <mxCell id="VW0d0hes_iw_Q88u06iS-25" value="E2" style="html=1;overflow=block;blockSpacing=1;whiteSpace=wrap;fontSize=16.7;align=center;spacing=9;strokeColor=#unset;rounded=1;absoluteArcSize=1;arcSize=9;fillColor=#FFFFFF;strokeWidth=NaN;lucidId=gb-.sQB0YD-k;shadow=1;" vertex="1" parent="1">
          <mxGeometry x="152" y="1082" width="58" height="37" as="geometry" />
        </mxCell>
        <mxCell id="VW0d0hes_iw_Q88u06iS-26" value="E12" style="html=1;overflow=block;blockSpacing=1;whiteSpace=wrap;fontSize=16.7;align=center;spacing=9;strokeColor=#unset;rounded=1;absoluteArcSize=1;arcSize=9;fillColor=#FFFFFF;strokeWidth=NaN;lucidId=gb-.uPbhh1sF;shadow=1;" vertex="1" parent="1">
          <mxGeometry x="300" y="1082" width="58" height="37" as="geometry" />
        </mxCell>
        <mxCell id="VW0d0hes_iw_Q88u06iS-27" value="" style="html=1;jettySize=18;whiteSpace=wrap;fontSize=13;strokeColor=#5E5E5E;strokeWidth=1.5;rounded=1;arcSize=12;edgeStyle=orthogonalEdgeStyle;startArrow=ERzeroToMany;startSize=10;endArrow=ERone;endSize=16;exitX=-0.013;exitY=0.5;exitPerimeter=0;entryX=1.013;entryY=0.5;entryPerimeter=0;lucidId=gb-.T4v.nvnW;fillColor=#FFFFFF;shadow=1;" edge="1" parent="1" source="VW0d0hes_iw_Q88u06iS-26" target="VW0d0hes_iw_Q88u06iS-25">
          <mxGeometry width="100" height="100" relative="1" as="geometry">
            <Array as="points" />
          </mxGeometry>
        </mxCell>
        <mxCell id="VW0d0hes_iw_Q88u06iS-28" value="E2" style="html=1;overflow=block;blockSpacing=1;whiteSpace=wrap;fontSize=16.7;align=center;spacing=9;strokeColor=#unset;rounded=1;absoluteArcSize=1;arcSize=9;fillColor=#FFFFFF;strokeWidth=NaN;lucidId=Ee-.-e9QqfMH;shadow=1;" vertex="1" parent="1">
          <mxGeometry x="152" y="875" width="58" height="37" as="geometry" />
        </mxCell>
        <mxCell id="VW0d0hes_iw_Q88u06iS-29" value="E5" style="html=1;overflow=block;blockSpacing=1;whiteSpace=wrap;fontSize=16.7;align=center;spacing=9;strokeColor=#unset;rounded=1;absoluteArcSize=1;arcSize=9;fillColor=#FFFFFF;strokeWidth=NaN;lucidId=Ee-.glLFmm_a;shadow=1;" vertex="1" parent="1">
          <mxGeometry x="300" y="875" width="58" height="37" as="geometry" />
        </mxCell>
        <mxCell id="VW0d0hes_iw_Q88u06iS-30" value="" style="html=1;jettySize=18;whiteSpace=wrap;fontSize=13;strokeColor=#5E5E5E;strokeWidth=1.5;rounded=1;arcSize=12;edgeStyle=orthogonalEdgeStyle;startArrow=ERzeroToMany;startSize=10;endArrow=ERone;endSize=16;exitX=-0.013;exitY=0.5;exitPerimeter=0;entryX=1.013;entryY=0.5;entryPerimeter=0;lucidId=Ee-.slK3gOFE;fillColor=#FFFFFF;shadow=1;" edge="1" parent="1" source="VW0d0hes_iw_Q88u06iS-29" target="VW0d0hes_iw_Q88u06iS-28">
          <mxGeometry width="100" height="100" relative="1" as="geometry">
            <Array as="points" />
          </mxGeometry>
        </mxCell>
        <mxCell id="VW0d0hes_iw_Q88u06iS-31" value="E3" style="html=1;overflow=block;blockSpacing=1;whiteSpace=wrap;fontSize=16.7;align=center;spacing=9;strokeColor=#unset;rounded=1;absoluteArcSize=1;arcSize=9;fillColor=#FFFFFF;strokeWidth=NaN;lucidId=nh-.uZ3-D6Ef;shadow=1;" vertex="1" parent="1">
          <mxGeometry x="152" y="1133" width="58" height="37" as="geometry" />
        </mxCell>
        <mxCell id="VW0d0hes_iw_Q88u06iS-32" value="E5" style="html=1;overflow=block;blockSpacing=1;whiteSpace=wrap;fontSize=16.7;align=center;spacing=9;strokeColor=#unset;rounded=1;absoluteArcSize=1;arcSize=9;fillColor=#FFFFFF;strokeWidth=NaN;lucidId=nh-.7fimG69a;shadow=1;" vertex="1" parent="1">
          <mxGeometry x="300" y="1133" width="58" height="37" as="geometry" />
        </mxCell>
        <mxCell id="VW0d0hes_iw_Q88u06iS-33" value="" style="html=1;jettySize=18;whiteSpace=wrap;fontSize=13;strokeColor=#5E5E5E;strokeWidth=1.5;rounded=1;arcSize=12;edgeStyle=orthogonalEdgeStyle;startArrow=ERzeroToMany;startSize=10;endArrow=ERone;endSize=16;exitX=-0.013;exitY=0.5;exitPerimeter=0;entryX=1.013;entryY=0.5;entryPerimeter=0;lucidId=nh-.vtvNjKWo;fillColor=#FFFFFF;shadow=1;" edge="1" parent="1" source="VW0d0hes_iw_Q88u06iS-32" target="VW0d0hes_iw_Q88u06iS-31">
          <mxGeometry width="100" height="100" relative="1" as="geometry">
            <Array as="points" />
          </mxGeometry>
        </mxCell>
        <mxCell id="VW0d0hes_iw_Q88u06iS-34" value="E3" style="html=1;overflow=block;blockSpacing=1;whiteSpace=wrap;fontSize=16.7;align=center;spacing=9;strokeColor=#unset;rounded=1;absoluteArcSize=1;arcSize=9;fillColor=#FFFFFF;strokeWidth=NaN;lucidId=aj-.gL-r61au;shadow=1;" vertex="1" parent="1">
          <mxGeometry x="380" y="668" width="58" height="37" as="geometry" />
        </mxCell>
        <mxCell id="VW0d0hes_iw_Q88u06iS-35" value="E9" style="html=1;overflow=block;blockSpacing=1;whiteSpace=wrap;fontSize=16.7;align=center;spacing=9;strokeColor=#unset;rounded=1;absoluteArcSize=1;arcSize=9;fillColor=#FFFFFF;strokeWidth=NaN;lucidId=aj-.JwW~57F_;shadow=1;" vertex="1" parent="1">
          <mxGeometry x="528" y="668" width="58" height="37" as="geometry" />
        </mxCell>
        <mxCell id="VW0d0hes_iw_Q88u06iS-37" value="E3" style="html=1;overflow=block;blockSpacing=1;whiteSpace=wrap;fontSize=16.7;align=center;spacing=9;strokeColor=#unset;rounded=1;absoluteArcSize=1;arcSize=9;fillColor=#FFFFFF;strokeWidth=NaN;lucidId=Uj-.-uaRzZYg;shadow=1;" vertex="1" parent="1">
          <mxGeometry x="380" y="720" width="58" height="37" as="geometry" />
        </mxCell>
        <mxCell id="VW0d0hes_iw_Q88u06iS-38" value="E10" style="html=1;overflow=block;blockSpacing=1;whiteSpace=wrap;fontSize=16.7;align=center;spacing=9;strokeColor=#unset;rounded=1;absoluteArcSize=1;arcSize=9;fillColor=#FFFFFF;strokeWidth=NaN;lucidId=Uj-.i6XIvXeX;shadow=1;" vertex="1" parent="1">
          <mxGeometry x="528" y="720" width="58" height="37" as="geometry" />
        </mxCell>
        <mxCell id="VW0d0hes_iw_Q88u06iS-40" value="E3" style="html=1;overflow=block;blockSpacing=1;whiteSpace=wrap;fontSize=16.7;align=center;spacing=9;strokeColor=#unset;rounded=1;absoluteArcSize=1;arcSize=9;fillColor=#FFFFFF;strokeWidth=NaN;lucidId=Dm-.xJ4fv~bC;shadow=1;" vertex="1" parent="1">
          <mxGeometry x="380" y="772" width="58" height="37" as="geometry" />
        </mxCell>
        <mxCell id="VW0d0hes_iw_Q88u06iS-41" value="E11" style="html=1;overflow=block;blockSpacing=1;whiteSpace=wrap;fontSize=16.7;align=center;spacing=9;strokeColor=#unset;rounded=1;absoluteArcSize=1;arcSize=9;fillColor=#FFFFFF;strokeWidth=NaN;lucidId=Dm-.RwP84Y_~;shadow=1;" vertex="1" parent="1">
          <mxGeometry x="528" y="772" width="58" height="37" as="geometry" />
        </mxCell>
        <mxCell id="VW0d0hes_iw_Q88u06iS-42" value="" style="html=1;jettySize=18;whiteSpace=wrap;fontSize=13;strokeColor=#5E5E5E;strokeWidth=1.5;rounded=1;arcSize=12;edgeStyle=orthogonalEdgeStyle;startArrow=ERoneToMany;startSize=10;endArrow=ERone;endSize=16;exitX=-0.013;exitY=0.5;exitPerimeter=0;entryX=1.013;entryY=0.5;entryPerimeter=0;lucidId=Dm-.p45LM0o9;fillColor=#FFFFFF;shadow=1;" edge="1" parent="1" source="VW0d0hes_iw_Q88u06iS-41" target="VW0d0hes_iw_Q88u06iS-40">
          <mxGeometry width="100" height="100" relative="1" as="geometry">
            <Array as="points" />
          </mxGeometry>
        </mxCell>
        <mxCell id="VW0d0hes_iw_Q88u06iS-43" value="E3" style="html=1;overflow=block;blockSpacing=1;whiteSpace=wrap;fontSize=16.7;align=center;spacing=9;strokeColor=#unset;rounded=1;absoluteArcSize=1;arcSize=9;fillColor=#FFFFFF;strokeWidth=NaN;lucidId=9m-.hp8IZicy;shadow=1;" vertex="1" parent="1">
          <mxGeometry x="380" y="824" width="58" height="37" as="geometry" />
        </mxCell>
        <mxCell id="VW0d0hes_iw_Q88u06iS-44" value="E12" style="html=1;overflow=block;blockSpacing=1;whiteSpace=wrap;fontSize=16.7;align=center;spacing=9;strokeColor=#unset;rounded=1;absoluteArcSize=1;arcSize=9;fillColor=#FFFFFF;strokeWidth=NaN;lucidId=9m-.NYmNRKxv;shadow=1;" vertex="1" parent="1">
          <mxGeometry x="528" y="824" width="58" height="37" as="geometry" />
        </mxCell>
        <mxCell id="VW0d0hes_iw_Q88u06iS-45" value="" style="html=1;jettySize=18;whiteSpace=wrap;fontSize=13;strokeColor=#5E5E5E;strokeWidth=1.5;rounded=1;arcSize=12;edgeStyle=orthogonalEdgeStyle;startArrow=ERzeroToMany;startSize=10;endArrow=ERone;endSize=16;exitX=-0.013;exitY=0.5;exitPerimeter=0;entryX=1.013;entryY=0.5;entryPerimeter=0;lucidId=9m-.v.tQU0M8;fillColor=#FFFFFF;shadow=1;" edge="1" parent="1" source="VW0d0hes_iw_Q88u06iS-44" target="VW0d0hes_iw_Q88u06iS-43">
          <mxGeometry width="100" height="100" relative="1" as="geometry">
            <Array as="points" />
          </mxGeometry>
        </mxCell>
        <mxCell id="VW0d0hes_iw_Q88u06iS-46" value="E4" style="html=1;overflow=block;blockSpacing=1;whiteSpace=wrap;fontSize=16.7;align=center;spacing=9;strokeColor=#unset;rounded=1;absoluteArcSize=1;arcSize=9;fillColor=#FFFFFF;strokeWidth=NaN;lucidId=Cn-.y0af_ZJq;shadow=1;" vertex="1" parent="1">
          <mxGeometry x="380" y="875" width="58" height="37" as="geometry" />
        </mxCell>
        <mxCell id="VW0d0hes_iw_Q88u06iS-47" value="E5" style="html=1;overflow=block;blockSpacing=1;whiteSpace=wrap;fontSize=16.7;align=center;spacing=9;strokeColor=#unset;rounded=1;absoluteArcSize=1;arcSize=9;fillColor=#FFFFFF;strokeWidth=NaN;lucidId=Cn-.5DLKqJvs;shadow=1;" vertex="1" parent="1">
          <mxGeometry x="528" y="875" width="58" height="37" as="geometry" />
        </mxCell>
        <mxCell id="VW0d0hes_iw_Q88u06iS-48" value="" style="html=1;jettySize=18;whiteSpace=wrap;fontSize=13;strokeColor=#5E5E5E;strokeWidth=1.5;rounded=1;arcSize=12;edgeStyle=orthogonalEdgeStyle;startArrow=ERzeroToMany;startSize=10;endArrow=ERone;endSize=16;exitX=-0.013;exitY=0.5;exitPerimeter=0;entryX=1.013;entryY=0.5;entryPerimeter=0;lucidId=Cn-.~MXiwPS6;fillColor=#FFFFFF;shadow=1;" edge="1" parent="1" source="VW0d0hes_iw_Q88u06iS-47" target="VW0d0hes_iw_Q88u06iS-46">
          <mxGeometry width="100" height="100" relative="1" as="geometry">
            <Array as="points" />
          </mxGeometry>
        </mxCell>
        <mxCell id="VW0d0hes_iw_Q88u06iS-49" value="E4" style="html=1;overflow=block;blockSpacing=1;whiteSpace=wrap;fontSize=16.7;align=center;spacing=9;strokeColor=#unset;rounded=1;absoluteArcSize=1;arcSize=9;fillColor=#FFFFFF;strokeWidth=NaN;lucidId=Br-.1N3cA9xV;shadow=1;" vertex="1" parent="1">
          <mxGeometry x="380" y="927" width="58" height="37" as="geometry" />
        </mxCell>
        <mxCell id="VW0d0hes_iw_Q88u06iS-50" value="E9" style="html=1;overflow=block;blockSpacing=1;whiteSpace=wrap;fontSize=16.7;align=center;spacing=9;strokeColor=#unset;rounded=1;absoluteArcSize=1;arcSize=9;fillColor=#FFFFFF;strokeWidth=NaN;lucidId=Br-..SqN6~zL;shadow=1;" vertex="1" parent="1">
          <mxGeometry x="528" y="927" width="58" height="37" as="geometry" />
        </mxCell>
        <mxCell id="VW0d0hes_iw_Q88u06iS-52" value="E4" style="html=1;overflow=block;blockSpacing=1;whiteSpace=wrap;fontSize=16.7;align=center;spacing=9;strokeColor=#unset;rounded=1;absoluteArcSize=1;arcSize=9;fillColor=#FFFFFF;strokeWidth=NaN;lucidId=gu-.UmnxDiXq;shadow=1;" vertex="1" parent="1">
          <mxGeometry x="380" y="979" width="58" height="37" as="geometry" />
        </mxCell>
        <mxCell id="VW0d0hes_iw_Q88u06iS-53" value="E10" style="html=1;overflow=block;blockSpacing=1;whiteSpace=wrap;fontSize=16.7;align=center;spacing=9;strokeColor=#unset;rounded=1;absoluteArcSize=1;arcSize=9;fillColor=#FFFFFF;strokeWidth=NaN;lucidId=gu-.zFVZlP5D;shadow=1;" vertex="1" parent="1">
          <mxGeometry x="528" y="979" width="58" height="37" as="geometry" />
        </mxCell>
        <mxCell id="VW0d0hes_iw_Q88u06iS-55" value="E4" style="html=1;overflow=block;blockSpacing=1;whiteSpace=wrap;fontSize=16.7;align=center;spacing=9;strokeColor=#unset;rounded=1;absoluteArcSize=1;arcSize=9;fillColor=#FFFFFF;strokeWidth=NaN;lucidId=Vu-.xdN_V.SW;shadow=1;" vertex="1" parent="1">
          <mxGeometry x="380" y="1030" width="58" height="37" as="geometry" />
        </mxCell>
        <mxCell id="VW0d0hes_iw_Q88u06iS-56" value="E11" style="html=1;overflow=block;blockSpacing=1;whiteSpace=wrap;fontSize=16.7;align=center;spacing=9;strokeColor=#unset;rounded=1;absoluteArcSize=1;arcSize=9;fillColor=#FFFFFF;strokeWidth=NaN;lucidId=Vu-.8aQ5YIUx;shadow=1;" vertex="1" parent="1">
          <mxGeometry x="528" y="1030" width="58" height="37" as="geometry" />
        </mxCell>
        <mxCell id="VW0d0hes_iw_Q88u06iS-57" value="" style="html=1;jettySize=18;whiteSpace=wrap;fontSize=13;strokeColor=#5E5E5E;strokeWidth=1.5;rounded=1;arcSize=12;edgeStyle=orthogonalEdgeStyle;startArrow=ERoneToMany;startSize=10;endArrow=ERone;endSize=16;exitX=-0.013;exitY=0.5;exitPerimeter=0;entryX=1.013;entryY=0.5;entryPerimeter=0;lucidId=Vu-.LSQZ5f-m;fillColor=#FFFFFF;shadow=1;" edge="1" parent="1" source="VW0d0hes_iw_Q88u06iS-56" target="VW0d0hes_iw_Q88u06iS-55">
          <mxGeometry width="100" height="100" relative="1" as="geometry">
            <Array as="points" />
          </mxGeometry>
        </mxCell>
        <mxCell id="VW0d0hes_iw_Q88u06iS-58" value="E4" style="html=1;overflow=block;blockSpacing=1;whiteSpace=wrap;fontSize=16.7;align=center;spacing=9;strokeColor=#unset;rounded=1;absoluteArcSize=1;arcSize=9;fillColor=#FFFFFF;strokeWidth=NaN;lucidId=ev-.DJNztvWs;shadow=1;" vertex="1" parent="1">
          <mxGeometry x="380" y="1082" width="58" height="37" as="geometry" />
        </mxCell>
        <mxCell id="VW0d0hes_iw_Q88u06iS-59" value="E12" style="html=1;overflow=block;blockSpacing=1;whiteSpace=wrap;fontSize=16.7;align=center;spacing=9;strokeColor=#unset;rounded=1;absoluteArcSize=1;arcSize=9;fillColor=#FFFFFF;strokeWidth=NaN;lucidId=ev-.b7LG4R2m;shadow=1;" vertex="1" parent="1">
          <mxGeometry x="528" y="1082" width="58" height="37" as="geometry" />
        </mxCell>
        <mxCell id="VW0d0hes_iw_Q88u06iS-60" value="" style="html=1;jettySize=18;whiteSpace=wrap;fontSize=13;strokeColor=#5E5E5E;strokeWidth=1.5;rounded=1;arcSize=12;edgeStyle=orthogonalEdgeStyle;startArrow=ERzeroToMany;startSize=10;endArrow=ERone;endSize=16;exitX=-0.013;exitY=0.5;exitPerimeter=0;entryX=1.013;entryY=0.5;entryPerimeter=0;lucidId=ev-.vkQOUTW8;fillColor=#FFFFFF;shadow=1;" edge="1" parent="1" source="VW0d0hes_iw_Q88u06iS-59" target="VW0d0hes_iw_Q88u06iS-58">
          <mxGeometry width="100" height="100" relative="1" as="geometry">
            <Array as="points" />
          </mxGeometry>
        </mxCell>
        <mxCell id="VW0d0hes_iw_Q88u06iS-61" value="E5" style="html=1;overflow=block;blockSpacing=1;whiteSpace=wrap;fontSize=16.7;align=center;spacing=9;strokeColor=#unset;rounded=1;absoluteArcSize=1;arcSize=9;fillColor=#FFFFFF;strokeWidth=NaN;lucidId=Ev-.UOXe~5~G;shadow=1;" vertex="1" parent="1">
          <mxGeometry x="380" y="1134" width="58" height="37" as="geometry" />
        </mxCell>
        <mxCell id="VW0d0hes_iw_Q88u06iS-62" value="E9" style="html=1;overflow=block;blockSpacing=1;whiteSpace=wrap;fontSize=16.7;align=center;spacing=9;strokeColor=#unset;rounded=1;absoluteArcSize=1;arcSize=9;fillColor=#FFFFFF;strokeWidth=NaN;lucidId=Ev-.zVaClFaw;shadow=1;" vertex="1" parent="1">
          <mxGeometry x="528" y="1134" width="58" height="37" as="geometry" />
        </mxCell>
        <mxCell id="VW0d0hes_iw_Q88u06iS-63" value="" style="html=1;jettySize=18;whiteSpace=wrap;fontSize=13;strokeColor=#5E5E5E;strokeWidth=1.5;rounded=1;arcSize=12;edgeStyle=orthogonalEdgeStyle;startArrow=ERoneToMany;startSize=10;endArrow=ERzeroToMany;endSize=10;exitX=-0.013;exitY=0.5;exitPerimeter=0;entryX=1.013;entryY=0.5;entryPerimeter=0;lucidId=Ev-..QIOVP.b;fillColor=#FFFFFF;shadow=1;" edge="1" parent="1" source="VW0d0hes_iw_Q88u06iS-62" target="VW0d0hes_iw_Q88u06iS-61">
          <mxGeometry width="100" height="100" relative="1" as="geometry">
            <Array as="points" />
          </mxGeometry>
        </mxCell>
        <mxCell id="VW0d0hes_iw_Q88u06iS-65" value="" style="edgeStyle=entityRelationEdgeStyle;fontSize=12;html=1;endArrow=ERzeroToMany;endFill=1;startArrow=ERzeroToMany;rounded=0;entryX=0;entryY=0.5;entryDx=0;entryDy=0;" edge="1" parent="1" source="VW0d0hes_iw_Q88u06iS-16" target="VW0d0hes_iw_Q88u06iS-17">
          <mxGeometry width="100" height="100" relative="1" as="geometry">
            <mxPoint x="210" y="947" as="sourcePoint" />
            <mxPoint x="310" y="847" as="targetPoint" />
          </mxGeometry>
        </mxCell>
        <mxCell id="VW0d0hes_iw_Q88u06iS-66" value="" style="edgeStyle=entityRelationEdgeStyle;fontSize=12;html=1;endArrow=ERzeroToMany;endFill=1;startArrow=ERzeroToMany;rounded=0;entryX=0;entryY=0.5;entryDx=0;entryDy=0;exitX=1;exitY=0.5;exitDx=0;exitDy=0;" edge="1" parent="1" source="VW0d0hes_iw_Q88u06iS-19" target="VW0d0hes_iw_Q88u06iS-20">
          <mxGeometry width="100" height="100" relative="1" as="geometry">
            <mxPoint x="220" y="956" as="sourcePoint" />
            <mxPoint x="310" y="956" as="targetPoint" />
            <Array as="points">
              <mxPoint x="243" y="999" />
            </Array>
          </mxGeometry>
        </mxCell>
        <mxCell id="VW0d0hes_iw_Q88u06iS-67" value="" style="edgeStyle=entityRelationEdgeStyle;fontSize=12;html=1;endArrow=ERzeroToMany;endFill=1;startArrow=ERzeroToMany;rounded=0;entryX=0;entryY=0.5;entryDx=0;entryDy=0;" edge="1" parent="1" source="VW0d0hes_iw_Q88u06iS-34" target="VW0d0hes_iw_Q88u06iS-35">
          <mxGeometry width="100" height="100" relative="1" as="geometry">
            <mxPoint x="448" y="490" as="sourcePoint" />
            <mxPoint x="538" y="490" as="targetPoint" />
            <Array as="points">
              <mxPoint x="481" y="492" />
            </Array>
          </mxGeometry>
        </mxCell>
        <mxCell id="VW0d0hes_iw_Q88u06iS-68" value="" style="edgeStyle=entityRelationEdgeStyle;fontSize=12;html=1;endArrow=ERzeroToMany;endFill=1;startArrow=ERzeroToMany;rounded=0;entryX=0;entryY=0.5;entryDx=0;entryDy=0;exitX=1;exitY=0.5;exitDx=0;exitDy=0;" edge="1" parent="1" source="VW0d0hes_iw_Q88u06iS-37" target="VW0d0hes_iw_Q88u06iS-38">
          <mxGeometry width="100" height="100" relative="1" as="geometry">
            <mxPoint x="235" y="1069" as="sourcePoint" />
            <mxPoint x="325" y="1069" as="targetPoint" />
            <Array as="points">
              <mxPoint x="268" y="1071" />
              <mxPoint x="660" y="804" />
            </Array>
          </mxGeometry>
        </mxCell>
        <mxCell id="VW0d0hes_iw_Q88u06iS-70" value="" style="edgeStyle=entityRelationEdgeStyle;fontSize=12;html=1;endArrow=ERzeroToMany;endFill=1;startArrow=ERzeroToMany;rounded=0;entryX=0;entryY=0.5;entryDx=0;entryDy=0;exitX=1;exitY=0.5;exitDx=0;exitDy=0;" edge="1" parent="1" source="VW0d0hes_iw_Q88u06iS-49" target="VW0d0hes_iw_Q88u06iS-50">
          <mxGeometry width="100" height="100" relative="1" as="geometry">
            <mxPoint x="448" y="749" as="sourcePoint" />
            <mxPoint x="538" y="749" as="targetPoint" />
            <Array as="points">
              <mxPoint x="278" y="1081" />
              <mxPoint x="670" y="814" />
            </Array>
          </mxGeometry>
        </mxCell>
        <mxCell id="VW0d0hes_iw_Q88u06iS-71" value="" style="edgeStyle=entityRelationEdgeStyle;fontSize=12;html=1;endArrow=ERzeroToMany;endFill=1;startArrow=ERzeroToMany;rounded=0;entryX=0;entryY=0.5;entryDx=0;entryDy=0;" edge="1" parent="1" source="VW0d0hes_iw_Q88u06iS-52" target="VW0d0hes_iw_Q88u06iS-53">
          <mxGeometry width="100" height="100" relative="1" as="geometry">
            <mxPoint x="448" y="956" as="sourcePoint" />
            <mxPoint x="538" y="956" as="targetPoint" />
            <Array as="points">
              <mxPoint x="288" y="1091" />
              <mxPoint x="680" y="824" />
            </Array>
          </mxGeometry>
        </mxCell>
        <mxCell id="VW0d0hes_iw_Q88u06iS-73" value="E5" style="html=1;overflow=block;blockSpacing=1;whiteSpace=wrap;fontSize=16.7;align=center;spacing=9;strokeColor=#unset;rounded=1;absoluteArcSize=1;arcSize=9;fillColor=#FFFFFF;strokeWidth=NaN;lucidId=Ev-.UOXe~5~G;shadow=1;" vertex="1" parent="1">
          <mxGeometry x="608" y="668" width="58" height="37" as="geometry" />
        </mxCell>
        <mxCell id="VW0d0hes_iw_Q88u06iS-74" value="E10" style="html=1;overflow=block;blockSpacing=1;whiteSpace=wrap;fontSize=16.7;align=center;spacing=9;strokeColor=#unset;rounded=1;absoluteArcSize=1;arcSize=9;fillColor=#FFFFFF;strokeWidth=NaN;lucidId=Ev-.zVaClFaw;shadow=1;" vertex="1" parent="1">
          <mxGeometry x="756" y="668" width="58" height="37" as="geometry" />
        </mxCell>
        <mxCell id="VW0d0hes_iw_Q88u06iS-75" value="" style="html=1;jettySize=18;whiteSpace=wrap;fontSize=13;strokeColor=#5E5E5E;strokeWidth=1.5;rounded=1;arcSize=12;edgeStyle=orthogonalEdgeStyle;startArrow=ERoneToMany;startSize=10;endArrow=ERzeroToMany;endSize=10;exitX=-0.013;exitY=0.5;exitPerimeter=0;entryX=1.013;entryY=0.5;entryPerimeter=0;lucidId=Ev-..QIOVP.b;fillColor=#FFFFFF;shadow=1;" edge="1" parent="1" source="VW0d0hes_iw_Q88u06iS-74" target="VW0d0hes_iw_Q88u06iS-73">
          <mxGeometry width="100" height="100" relative="1" as="geometry">
            <Array as="points" />
          </mxGeometry>
        </mxCell>
        <mxCell id="VW0d0hes_iw_Q88u06iS-76" value="E5" style="html=1;overflow=block;blockSpacing=1;whiteSpace=wrap;fontSize=16.7;align=center;spacing=9;strokeColor=#unset;rounded=1;absoluteArcSize=1;arcSize=9;fillColor=#FFFFFF;strokeWidth=NaN;lucidId=Ev-.UOXe~5~G;shadow=1;" vertex="1" parent="1">
          <mxGeometry x="608" y="720" width="58" height="37" as="geometry" />
        </mxCell>
        <mxCell id="VW0d0hes_iw_Q88u06iS-77" value="E11" style="html=1;overflow=block;blockSpacing=1;whiteSpace=wrap;fontSize=16.7;align=center;spacing=9;strokeColor=#unset;rounded=1;absoluteArcSize=1;arcSize=9;fillColor=#FFFFFF;strokeWidth=NaN;lucidId=Ev-.zVaClFaw;shadow=1;" vertex="1" parent="1">
          <mxGeometry x="756" y="720" width="58" height="37" as="geometry" />
        </mxCell>
        <mxCell id="VW0d0hes_iw_Q88u06iS-78" value="" style="html=1;jettySize=18;whiteSpace=wrap;fontSize=13;strokeColor=#5E5E5E;strokeWidth=1.5;rounded=1;arcSize=12;edgeStyle=orthogonalEdgeStyle;startArrow=ERoneToMany;startSize=10;endArrow=ERzeroToMany;endSize=10;exitX=-0.013;exitY=0.5;exitPerimeter=0;entryX=1.013;entryY=0.5;entryPerimeter=0;lucidId=Ev-..QIOVP.b;fillColor=#FFFFFF;shadow=1;" edge="1" parent="1" source="VW0d0hes_iw_Q88u06iS-77" target="VW0d0hes_iw_Q88u06iS-76">
          <mxGeometry width="100" height="100" relative="1" as="geometry">
            <Array as="points" />
          </mxGeometry>
        </mxCell>
        <mxCell id="VW0d0hes_iw_Q88u06iS-79" value="E5" style="html=1;overflow=block;blockSpacing=1;whiteSpace=wrap;fontSize=16.7;align=center;spacing=9;strokeColor=#unset;rounded=1;absoluteArcSize=1;arcSize=9;fillColor=#FFFFFF;strokeWidth=NaN;lucidId=Ev-.UOXe~5~G;shadow=1;" vertex="1" parent="1">
          <mxGeometry x="608" y="773" width="58" height="37" as="geometry" />
        </mxCell>
        <mxCell id="VW0d0hes_iw_Q88u06iS-80" value="E12" style="html=1;overflow=block;blockSpacing=1;whiteSpace=wrap;fontSize=16.7;align=center;spacing=9;strokeColor=#unset;rounded=1;absoluteArcSize=1;arcSize=9;fillColor=#FFFFFF;strokeWidth=NaN;lucidId=Ev-.zVaClFaw;shadow=1;" vertex="1" parent="1">
          <mxGeometry x="756" y="773" width="58" height="37" as="geometry" />
        </mxCell>
        <mxCell id="VW0d0hes_iw_Q88u06iS-83" value="" style="edgeStyle=entityRelationEdgeStyle;fontSize=12;html=1;endArrow=ERzeroToMany;startArrow=ERmandOne;rounded=0;" edge="1" parent="1" source="VW0d0hes_iw_Q88u06iS-79" target="VW0d0hes_iw_Q88u06iS-80">
          <mxGeometry width="100" height="100" relative="1" as="geometry">
            <mxPoint x="557" y="1091" as="sourcePoint" />
            <mxPoint x="657" y="991" as="targetPoint" />
          </mxGeometry>
        </mxCell>
        <mxCell id="VW0d0hes_iw_Q88u06iS-84" value="E5" style="html=1;overflow=block;blockSpacing=1;whiteSpace=wrap;fontSize=16.7;align=center;spacing=9;strokeColor=#unset;rounded=1;absoluteArcSize=1;arcSize=9;fillColor=#FFFFFF;strokeWidth=NaN;lucidId=Ev-.UOXe~5~G;shadow=1;" vertex="1" parent="1">
          <mxGeometry x="608" y="825" width="58" height="37" as="geometry" />
        </mxCell>
        <mxCell id="VW0d0hes_iw_Q88u06iS-85" value="E14" style="html=1;overflow=block;blockSpacing=1;whiteSpace=wrap;fontSize=16.7;align=center;spacing=9;strokeColor=#unset;rounded=1;absoluteArcSize=1;arcSize=9;fillColor=#FFFFFF;strokeWidth=NaN;lucidId=Ev-.zVaClFaw;shadow=1;" vertex="1" parent="1">
          <mxGeometry x="756" y="825" width="58" height="37" as="geometry" />
        </mxCell>
        <mxCell id="VW0d0hes_iw_Q88u06iS-87" value="" style="edgeStyle=entityRelationEdgeStyle;fontSize=12;html=1;endArrow=ERmandOne;rounded=0;exitX=0;exitY=0.5;exitDx=0;exitDy=0;" edge="1" parent="1" source="VW0d0hes_iw_Q88u06iS-85" target="VW0d0hes_iw_Q88u06iS-84">
          <mxGeometry width="100" height="100" relative="1" as="geometry">
            <mxPoint x="688" y="1096" as="sourcePoint" />
            <mxPoint x="788" y="996" as="targetPoint" />
          </mxGeometry>
        </mxCell>
        <mxCell id="VW0d0hes_iw_Q88u06iS-88" value="E5" style="html=1;overflow=block;blockSpacing=1;whiteSpace=wrap;fontSize=16.7;align=center;spacing=9;strokeColor=#unset;rounded=1;absoluteArcSize=1;arcSize=9;fillColor=#FFFFFF;strokeWidth=NaN;lucidId=Ev-.UOXe~5~G;shadow=1;" vertex="1" parent="1">
          <mxGeometry x="608" y="877" width="58" height="37" as="geometry" />
        </mxCell>
        <mxCell id="VW0d0hes_iw_Q88u06iS-89" value="E16" style="html=1;overflow=block;blockSpacing=1;whiteSpace=wrap;fontSize=16.7;align=center;spacing=9;strokeColor=#unset;rounded=1;absoluteArcSize=1;arcSize=9;fillColor=#FFFFFF;strokeWidth=NaN;lucidId=Ev-.zVaClFaw;shadow=1;" vertex="1" parent="1">
          <mxGeometry x="756" y="877" width="58" height="37" as="geometry" />
        </mxCell>
        <mxCell id="VW0d0hes_iw_Q88u06iS-91" value="" style="edgeStyle=entityRelationEdgeStyle;fontSize=12;html=1;endArrow=ERzeroToMany;startArrow=ERmandOne;rounded=0;entryX=1;entryY=0.5;entryDx=0;entryDy=0;" edge="1" parent="1" source="VW0d0hes_iw_Q88u06iS-89" target="VW0d0hes_iw_Q88u06iS-88">
          <mxGeometry width="100" height="100" relative="1" as="geometry">
            <mxPoint x="557" y="1091" as="sourcePoint" />
            <mxPoint x="657" y="991" as="targetPoint" />
          </mxGeometry>
        </mxCell>
        <mxCell id="VW0d0hes_iw_Q88u06iS-92" value="E6" style="html=1;overflow=block;blockSpacing=1;whiteSpace=wrap;fontSize=16.7;align=center;spacing=9;strokeColor=#unset;rounded=1;absoluteArcSize=1;arcSize=9;fillColor=#FFFFFF;strokeWidth=NaN;lucidId=Ev-.UOXe~5~G;shadow=1;" vertex="1" parent="1">
          <mxGeometry x="608" y="928" width="58" height="37" as="geometry" />
        </mxCell>
        <mxCell id="VW0d0hes_iw_Q88u06iS-93" value="E9" style="html=1;overflow=block;blockSpacing=1;whiteSpace=wrap;fontSize=16.7;align=center;spacing=9;strokeColor=#unset;rounded=1;absoluteArcSize=1;arcSize=9;fillColor=#FFFFFF;strokeWidth=NaN;lucidId=Ev-.zVaClFaw;shadow=1;" vertex="1" parent="1">
          <mxGeometry x="756" y="928" width="58" height="37" as="geometry" />
        </mxCell>
        <mxCell id="VW0d0hes_iw_Q88u06iS-95" value="" style="edgeStyle=entityRelationEdgeStyle;fontSize=12;html=1;endArrow=ERoneToMany;startArrow=ERmandOne;rounded=0;exitX=0;exitY=0.5;exitDx=0;exitDy=0;" edge="1" parent="1" source="VW0d0hes_iw_Q88u06iS-93" target="VW0d0hes_iw_Q88u06iS-92">
          <mxGeometry width="100" height="100" relative="1" as="geometry">
            <mxPoint x="691" y="1093" as="sourcePoint" />
            <mxPoint x="786" y="1015" as="targetPoint" />
          </mxGeometry>
        </mxCell>
        <mxCell id="VW0d0hes_iw_Q88u06iS-96" value="E6" style="html=1;overflow=block;blockSpacing=1;whiteSpace=wrap;fontSize=16.7;align=center;spacing=9;strokeColor=#unset;rounded=1;absoluteArcSize=1;arcSize=9;fillColor=#FFFFFF;strokeWidth=NaN;lucidId=Ev-.UOXe~5~G;shadow=1;" vertex="1" parent="1">
          <mxGeometry x="608" y="980" width="58" height="37" as="geometry" />
        </mxCell>
        <mxCell id="VW0d0hes_iw_Q88u06iS-97" value="E11" style="html=1;overflow=block;blockSpacing=1;whiteSpace=wrap;fontSize=16.7;align=center;spacing=9;strokeColor=#unset;rounded=1;absoluteArcSize=1;arcSize=9;fillColor=#FFFFFF;strokeWidth=NaN;lucidId=Ev-.zVaClFaw;shadow=1;" vertex="1" parent="1">
          <mxGeometry x="756" y="980" width="58" height="37" as="geometry" />
        </mxCell>
        <mxCell id="VW0d0hes_iw_Q88u06iS-99" value="" style="edgeStyle=entityRelationEdgeStyle;fontSize=12;html=1;endArrow=ERoneToMany;startArrow=ERmandOne;rounded=0;exitX=0;exitY=0.5;exitDx=0;exitDy=0;entryX=1;entryY=0.5;entryDx=0;entryDy=0;" edge="1" parent="1" source="VW0d0hes_iw_Q88u06iS-97" target="VW0d0hes_iw_Q88u06iS-96">
          <mxGeometry width="100" height="100" relative="1" as="geometry">
            <mxPoint x="797" y="1069" as="sourcePoint" />
            <mxPoint x="707" y="1069" as="targetPoint" />
          </mxGeometry>
        </mxCell>
        <mxCell id="VW0d0hes_iw_Q88u06iS-101" value="E6" style="html=1;overflow=block;blockSpacing=1;whiteSpace=wrap;fontSize=16.7;align=center;spacing=9;strokeColor=#unset;rounded=1;absoluteArcSize=1;arcSize=9;fillColor=#FFFFFF;strokeWidth=NaN;lucidId=Ev-.UOXe~5~G;shadow=1;" vertex="1" parent="1">
          <mxGeometry x="608" y="1032" width="58" height="37" as="geometry" />
        </mxCell>
        <mxCell id="VW0d0hes_iw_Q88u06iS-102" value="E12" style="html=1;overflow=block;blockSpacing=1;whiteSpace=wrap;fontSize=16.7;align=center;spacing=9;strokeColor=#unset;rounded=1;absoluteArcSize=1;arcSize=9;fillColor=#FFFFFF;strokeWidth=NaN;lucidId=Ev-.zVaClFaw;shadow=1;" vertex="1" parent="1">
          <mxGeometry x="756" y="1032" width="58" height="37" as="geometry" />
        </mxCell>
        <mxCell id="VW0d0hes_iw_Q88u06iS-104" value="" style="edgeStyle=entityRelationEdgeStyle;fontSize=12;html=1;endArrow=ERzeroToMany;endFill=1;rounded=0;entryX=0;entryY=0.5;entryDx=0;entryDy=0;" edge="1" parent="1" source="VW0d0hes_iw_Q88u06iS-101" target="VW0d0hes_iw_Q88u06iS-102">
          <mxGeometry width="100" height="100" relative="1" as="geometry">
            <mxPoint x="572" y="949" as="sourcePoint" />
            <mxPoint x="672" y="849" as="targetPoint" />
          </mxGeometry>
        </mxCell>
        <mxCell id="VW0d0hes_iw_Q88u06iS-105" value="E6" style="html=1;overflow=block;blockSpacing=1;whiteSpace=wrap;fontSize=16.7;align=center;spacing=9;strokeColor=#unset;rounded=1;absoluteArcSize=1;arcSize=9;fillColor=#FFFFFF;strokeWidth=NaN;lucidId=Ev-.UOXe~5~G;shadow=1;" vertex="1" parent="1">
          <mxGeometry x="608" y="1083" width="58" height="37" as="geometry" />
        </mxCell>
        <mxCell id="VW0d0hes_iw_Q88u06iS-106" value="E14" style="html=1;overflow=block;blockSpacing=1;whiteSpace=wrap;fontSize=16.7;align=center;spacing=9;strokeColor=#unset;rounded=1;absoluteArcSize=1;arcSize=9;fillColor=#FFFFFF;strokeWidth=NaN;lucidId=Ev-.zVaClFaw;shadow=1;" vertex="1" parent="1">
          <mxGeometry x="756" y="1083" width="58" height="37" as="geometry" />
        </mxCell>
        <mxCell id="VW0d0hes_iw_Q88u06iS-108" value="" style="edgeStyle=entityRelationEdgeStyle;fontSize=12;html=1;endArrow=ERoneToMany;rounded=0;entryX=0;entryY=0.5;entryDx=0;entryDy=0;" edge="1" parent="1" source="VW0d0hes_iw_Q88u06iS-105" target="VW0d0hes_iw_Q88u06iS-106">
          <mxGeometry width="100" height="100" relative="1" as="geometry">
            <mxPoint x="572" y="949" as="sourcePoint" />
            <mxPoint x="672" y="849" as="targetPoint" />
          </mxGeometry>
        </mxCell>
        <mxCell id="VW0d0hes_iw_Q88u06iS-109" value="E7" style="html=1;overflow=block;blockSpacing=1;whiteSpace=wrap;fontSize=16.7;align=center;spacing=9;strokeColor=#unset;rounded=1;absoluteArcSize=1;arcSize=9;fillColor=#FFFFFF;strokeWidth=NaN;lucidId=Ev-.UOXe~5~G;shadow=1;" vertex="1" parent="1">
          <mxGeometry x="841" y="667.5" width="58" height="37" as="geometry" />
        </mxCell>
        <mxCell id="VW0d0hes_iw_Q88u06iS-110" value="E9" style="html=1;overflow=block;blockSpacing=1;whiteSpace=wrap;fontSize=16.7;align=center;spacing=9;strokeColor=#unset;rounded=1;absoluteArcSize=1;arcSize=9;fillColor=#FFFFFF;strokeWidth=NaN;lucidId=Ev-.zVaClFaw;shadow=1;" vertex="1" parent="1">
          <mxGeometry x="989" y="667.5" width="58" height="37" as="geometry" />
        </mxCell>
        <mxCell id="VW0d0hes_iw_Q88u06iS-115" value="" style="edgeStyle=entityRelationEdgeStyle;fontSize=12;html=1;endArrow=ERoneToMany;startArrow=ERmandOne;rounded=0;exitX=0;exitY=0.5;exitDx=0;exitDy=0;" edge="1" parent="1" source="VW0d0hes_iw_Q88u06iS-110" target="VW0d0hes_iw_Q88u06iS-109">
          <mxGeometry width="100" height="100" relative="1" as="geometry">
            <mxPoint x="995" y="690.5" as="sourcePoint" />
            <mxPoint x="946" y="770.5" as="targetPoint" />
            <Array as="points">
              <mxPoint x="904" y="686.5" />
            </Array>
          </mxGeometry>
        </mxCell>
        <mxCell id="VW0d0hes_iw_Q88u06iS-117" value="E7" style="html=1;overflow=block;blockSpacing=1;whiteSpace=wrap;fontSize=16.7;align=center;spacing=9;strokeColor=#unset;rounded=1;absoluteArcSize=1;arcSize=9;fillColor=#FFFFFF;strokeWidth=NaN;lucidId=Ev-.UOXe~5~G;shadow=1;" vertex="1" parent="1">
          <mxGeometry x="841" y="719" width="58" height="37" as="geometry" />
        </mxCell>
        <mxCell id="VW0d0hes_iw_Q88u06iS-118" value="E12" style="html=1;overflow=block;blockSpacing=1;whiteSpace=wrap;fontSize=16.7;align=center;spacing=9;strokeColor=#unset;rounded=1;absoluteArcSize=1;arcSize=9;fillColor=#FFFFFF;strokeWidth=NaN;lucidId=Ev-.zVaClFaw;shadow=1;" vertex="1" parent="1">
          <mxGeometry x="989" y="719" width="58" height="37" as="geometry" />
        </mxCell>
        <mxCell id="VW0d0hes_iw_Q88u06iS-119" value="" style="edgeStyle=entityRelationEdgeStyle;fontSize=12;html=1;endArrow=ERoneToMany;startArrow=ERmandOne;rounded=0;entryX=0;entryY=0.5;entryDx=0;entryDy=0;" edge="1" parent="1" source="VW0d0hes_iw_Q88u06iS-117" target="VW0d0hes_iw_Q88u06iS-118">
          <mxGeometry width="100" height="100" relative="1" as="geometry">
            <mxPoint x="991" y="789" as="sourcePoint" />
            <mxPoint x="901" y="789" as="targetPoint" />
          </mxGeometry>
        </mxCell>
        <mxCell id="VW0d0hes_iw_Q88u06iS-123" value="E6" style="html=1;overflow=block;blockSpacing=1;whiteSpace=wrap;fontSize=16.7;align=center;spacing=9;strokeColor=#unset;rounded=1;absoluteArcSize=1;arcSize=9;fillColor=#FFFFFF;strokeWidth=NaN;lucidId=Ev-.UOXe~5~G;shadow=1;" vertex="1" parent="1">
          <mxGeometry x="608" y="1135" width="58" height="37" as="geometry" />
        </mxCell>
        <mxCell id="VW0d0hes_iw_Q88u06iS-124" value="E17" style="html=1;overflow=block;blockSpacing=1;whiteSpace=wrap;fontSize=16.7;align=center;spacing=9;strokeColor=#unset;rounded=1;absoluteArcSize=1;arcSize=9;fillColor=#FFFFFF;strokeWidth=NaN;lucidId=Ev-.zVaClFaw;shadow=1;" vertex="1" parent="1">
          <mxGeometry x="756" y="1135" width="58" height="37" as="geometry" />
        </mxCell>
        <mxCell id="VW0d0hes_iw_Q88u06iS-126" value="" style="edgeStyle=entityRelationEdgeStyle;fontSize=12;html=1;endArrow=ERmandOne;startArrow=ERmandOne;rounded=0;exitX=1;exitY=0.5;exitDx=0;exitDy=0;entryX=0;entryY=0.5;entryDx=0;entryDy=0;" edge="1" parent="1" source="VW0d0hes_iw_Q88u06iS-123" target="VW0d0hes_iw_Q88u06iS-124">
          <mxGeometry width="100" height="100" relative="1" as="geometry">
            <mxPoint x="402" y="1040" as="sourcePoint" />
            <mxPoint x="502" y="940" as="targetPoint" />
          </mxGeometry>
        </mxCell>
        <mxCell id="VW0d0hes_iw_Q88u06iS-127" value="E7" style="html=1;overflow=block;blockSpacing=1;whiteSpace=wrap;fontSize=16.7;align=center;spacing=9;strokeColor=#unset;rounded=1;absoluteArcSize=1;arcSize=9;fillColor=#FFFFFF;strokeWidth=NaN;lucidId=Ev-.UOXe~5~G;shadow=1;" vertex="1" parent="1">
          <mxGeometry x="841" y="771" width="58" height="37" as="geometry" />
        </mxCell>
        <mxCell id="VW0d0hes_iw_Q88u06iS-128" value="E14" style="html=1;overflow=block;blockSpacing=1;whiteSpace=wrap;fontSize=16.7;align=center;spacing=9;strokeColor=#unset;rounded=1;absoluteArcSize=1;arcSize=9;fillColor=#FFFFFF;strokeWidth=NaN;lucidId=Ev-.zVaClFaw;shadow=1;" vertex="1" parent="1">
          <mxGeometry x="989" y="771" width="58" height="37" as="geometry" />
        </mxCell>
        <mxCell id="VW0d0hes_iw_Q88u06iS-129" value="" style="edgeStyle=entityRelationEdgeStyle;fontSize=12;html=1;endArrow=ERoneToMany;startArrow=ERmandOne;rounded=0;entryX=0;entryY=0.5;entryDx=0;entryDy=0;" edge="1" parent="1" source="VW0d0hes_iw_Q88u06iS-127" target="VW0d0hes_iw_Q88u06iS-128">
          <mxGeometry width="100" height="100" relative="1" as="geometry">
            <mxPoint x="991" y="841" as="sourcePoint" />
            <mxPoint x="901" y="841" as="targetPoint" />
          </mxGeometry>
        </mxCell>
        <mxCell id="VW0d0hes_iw_Q88u06iS-130" value="E7" style="html=1;overflow=block;blockSpacing=1;whiteSpace=wrap;fontSize=16.7;align=center;spacing=9;strokeColor=#unset;rounded=1;absoluteArcSize=1;arcSize=9;fillColor=#FFFFFF;strokeWidth=NaN;lucidId=Ev-.UOXe~5~G;shadow=1;" vertex="1" parent="1">
          <mxGeometry x="841" y="823" width="58" height="37" as="geometry" />
        </mxCell>
        <mxCell id="VW0d0hes_iw_Q88u06iS-131" value="E17" style="html=1;overflow=block;blockSpacing=1;whiteSpace=wrap;fontSize=16.7;align=center;spacing=9;strokeColor=#unset;rounded=1;absoluteArcSize=1;arcSize=9;fillColor=#FFFFFF;strokeWidth=NaN;lucidId=Ev-.zVaClFaw;shadow=1;" vertex="1" parent="1">
          <mxGeometry x="989" y="823" width="58" height="37" as="geometry" />
        </mxCell>
        <mxCell id="VW0d0hes_iw_Q88u06iS-133" value="" style="edgeStyle=entityRelationEdgeStyle;fontSize=12;html=1;endArrow=ERmandOne;startArrow=ERmandOne;rounded=0;" edge="1" parent="1" source="VW0d0hes_iw_Q88u06iS-130" target="VW0d0hes_iw_Q88u06iS-131">
          <mxGeometry width="100" height="100" relative="1" as="geometry">
            <mxPoint x="678" y="1214" as="sourcePoint" />
            <mxPoint x="768" y="1214" as="targetPoint" />
          </mxGeometry>
        </mxCell>
        <mxCell id="VW0d0hes_iw_Q88u06iS-134" value="E8" style="html=1;overflow=block;blockSpacing=1;whiteSpace=wrap;fontSize=16.7;align=center;spacing=9;strokeColor=#unset;rounded=1;absoluteArcSize=1;arcSize=9;fillColor=#FFFFFF;strokeWidth=NaN;lucidId=Ev-.UOXe~5~G;shadow=1;" vertex="1" parent="1">
          <mxGeometry x="841" y="875" width="58" height="37" as="geometry" />
        </mxCell>
        <mxCell id="VW0d0hes_iw_Q88u06iS-135" value="E9" style="html=1;overflow=block;blockSpacing=1;whiteSpace=wrap;fontSize=16.7;align=center;spacing=9;strokeColor=#unset;rounded=1;absoluteArcSize=1;arcSize=9;fillColor=#FFFFFF;strokeWidth=NaN;lucidId=Ev-.zVaClFaw;shadow=1;" vertex="1" parent="1">
          <mxGeometry x="989" y="875" width="58" height="37" as="geometry" />
        </mxCell>
        <mxCell id="VW0d0hes_iw_Q88u06iS-138" value="" style="edgeStyle=entityRelationEdgeStyle;fontSize=12;html=1;endArrow=ERzeroToMany;endFill=1;startArrow=ERzeroToMany;rounded=0;entryX=1;entryY=0.5;entryDx=0;entryDy=0;exitX=0;exitY=0.5;exitDx=0;exitDy=0;" edge="1" parent="1" source="VW0d0hes_iw_Q88u06iS-135" target="VW0d0hes_iw_Q88u06iS-134">
          <mxGeometry width="100" height="100" relative="1" as="geometry">
            <mxPoint x="762" y="1090" as="sourcePoint" />
            <mxPoint x="862" y="990" as="targetPoint" />
          </mxGeometry>
        </mxCell>
        <mxCell id="VW0d0hes_iw_Q88u06iS-139" value="E9" style="html=1;overflow=block;blockSpacing=1;whiteSpace=wrap;fontSize=16.7;align=center;spacing=9;strokeColor=#unset;rounded=1;absoluteArcSize=1;arcSize=9;fillColor=#FFFFFF;strokeWidth=NaN;lucidId=Ev-.UOXe~5~G;shadow=1;" vertex="1" parent="1">
          <mxGeometry x="841" y="927" width="58" height="37" as="geometry" />
        </mxCell>
        <mxCell id="VW0d0hes_iw_Q88u06iS-140" value="E10" style="html=1;overflow=block;blockSpacing=1;whiteSpace=wrap;fontSize=16.7;align=center;spacing=9;strokeColor=#unset;rounded=1;absoluteArcSize=1;arcSize=9;fillColor=#FFFFFF;strokeWidth=NaN;lucidId=Ev-.zVaClFaw;shadow=1;" vertex="1" parent="1">
          <mxGeometry x="989" y="927" width="58" height="37" as="geometry" />
        </mxCell>
        <mxCell id="VW0d0hes_iw_Q88u06iS-142" value="" style="edgeStyle=entityRelationEdgeStyle;fontSize=12;html=1;endArrow=ERzeroToMany;startArrow=ERmandOne;rounded=0;entryX=0;entryY=0.5;entryDx=0;entryDy=0;" edge="1" parent="1" source="VW0d0hes_iw_Q88u06iS-139" target="VW0d0hes_iw_Q88u06iS-140">
          <mxGeometry width="100" height="100" relative="1" as="geometry">
            <mxPoint x="762" y="1090" as="sourcePoint" />
            <mxPoint x="862" y="990" as="targetPoint" />
          </mxGeometry>
        </mxCell>
        <mxCell id="VW0d0hes_iw_Q88u06iS-143" value="E9" style="html=1;overflow=block;blockSpacing=1;whiteSpace=wrap;fontSize=16.7;align=center;spacing=9;strokeColor=#unset;rounded=1;absoluteArcSize=1;arcSize=9;fillColor=#FFFFFF;strokeWidth=NaN;lucidId=Ev-.UOXe~5~G;shadow=1;" vertex="1" parent="1">
          <mxGeometry x="841" y="978" width="58" height="37" as="geometry" />
        </mxCell>
        <mxCell id="VW0d0hes_iw_Q88u06iS-144" value="E12" style="html=1;overflow=block;blockSpacing=1;whiteSpace=wrap;fontSize=16.7;align=center;spacing=9;strokeColor=#unset;rounded=1;absoluteArcSize=1;arcSize=9;fillColor=#FFFFFF;strokeWidth=NaN;lucidId=Ev-.zVaClFaw;shadow=1;" vertex="1" parent="1">
          <mxGeometry x="989" y="978" width="58" height="37" as="geometry" />
        </mxCell>
        <mxCell id="VW0d0hes_iw_Q88u06iS-145" value="" style="edgeStyle=entityRelationEdgeStyle;fontSize=12;html=1;endArrow=ERzeroToMany;startArrow=ERmandOne;rounded=0;entryX=0;entryY=0.5;entryDx=0;entryDy=0;" edge="1" parent="1" source="VW0d0hes_iw_Q88u06iS-143" target="VW0d0hes_iw_Q88u06iS-144">
          <mxGeometry width="100" height="100" relative="1" as="geometry">
            <mxPoint x="762" y="1141" as="sourcePoint" />
            <mxPoint x="862" y="1041" as="targetPoint" />
          </mxGeometry>
        </mxCell>
        <mxCell id="VW0d0hes_iw_Q88u06iS-146" value="E9" style="html=1;overflow=block;blockSpacing=1;whiteSpace=wrap;fontSize=16.7;align=center;spacing=9;strokeColor=#unset;rounded=1;absoluteArcSize=1;arcSize=9;fillColor=#FFFFFF;strokeWidth=NaN;lucidId=Ev-.UOXe~5~G;shadow=1;" vertex="1" parent="1">
          <mxGeometry x="841" y="1030" width="58" height="37" as="geometry" />
        </mxCell>
        <mxCell id="VW0d0hes_iw_Q88u06iS-147" value="E13" style="html=1;overflow=block;blockSpacing=1;whiteSpace=wrap;fontSize=16.7;align=center;spacing=9;strokeColor=#unset;rounded=1;absoluteArcSize=1;arcSize=9;fillColor=#FFFFFF;strokeWidth=NaN;lucidId=Ev-.zVaClFaw;shadow=1;" vertex="1" parent="1">
          <mxGeometry x="989" y="1030" width="58" height="37" as="geometry" />
        </mxCell>
        <mxCell id="VW0d0hes_iw_Q88u06iS-148" value="" style="edgeStyle=entityRelationEdgeStyle;fontSize=12;html=1;endArrow=ERzeroToMany;startArrow=ERmandOne;rounded=0;entryX=0;entryY=0.5;entryDx=0;entryDy=0;" edge="1" parent="1" source="VW0d0hes_iw_Q88u06iS-146" target="VW0d0hes_iw_Q88u06iS-147">
          <mxGeometry width="100" height="100" relative="1" as="geometry">
            <mxPoint x="762" y="1193" as="sourcePoint" />
            <mxPoint x="862" y="1093" as="targetPoint" />
          </mxGeometry>
        </mxCell>
        <mxCell id="VW0d0hes_iw_Q88u06iS-149" value="E9" style="html=1;overflow=block;blockSpacing=1;whiteSpace=wrap;fontSize=16.7;align=center;spacing=9;strokeColor=#unset;rounded=1;absoluteArcSize=1;arcSize=9;fillColor=#FFFFFF;strokeWidth=NaN;lucidId=Ev-.UOXe~5~G;shadow=1;" vertex="1" parent="1">
          <mxGeometry x="841" y="1082" width="58" height="37" as="geometry" />
        </mxCell>
        <mxCell id="VW0d0hes_iw_Q88u06iS-150" value="E14" style="html=1;overflow=block;blockSpacing=1;whiteSpace=wrap;fontSize=16.7;align=center;spacing=9;strokeColor=#unset;rounded=1;absoluteArcSize=1;arcSize=9;fillColor=#FFFFFF;strokeWidth=NaN;lucidId=Ev-.zVaClFaw;shadow=1;" vertex="1" parent="1">
          <mxGeometry x="989" y="1082" width="58" height="37" as="geometry" />
        </mxCell>
        <mxCell id="VW0d0hes_iw_Q88u06iS-151" value="" style="edgeStyle=entityRelationEdgeStyle;fontSize=12;html=1;endArrow=ERzeroToMany;startArrow=ERmandOne;rounded=0;entryX=0;entryY=0.5;entryDx=0;entryDy=0;" edge="1" parent="1" source="VW0d0hes_iw_Q88u06iS-149" target="VW0d0hes_iw_Q88u06iS-150">
          <mxGeometry width="100" height="100" relative="1" as="geometry">
            <mxPoint x="762" y="1245" as="sourcePoint" />
            <mxPoint x="862" y="1145" as="targetPoint" />
          </mxGeometry>
        </mxCell>
        <mxCell id="VW0d0hes_iw_Q88u06iS-152" value="E9" style="html=1;overflow=block;blockSpacing=1;whiteSpace=wrap;fontSize=16.7;align=center;spacing=9;strokeColor=#unset;rounded=1;absoluteArcSize=1;arcSize=9;fillColor=#FFFFFF;strokeWidth=NaN;lucidId=Ev-.UOXe~5~G;shadow=1;" vertex="1" parent="1">
          <mxGeometry x="841" y="1133" width="58" height="37" as="geometry" />
        </mxCell>
        <mxCell id="VW0d0hes_iw_Q88u06iS-153" value="E15" style="html=1;overflow=block;blockSpacing=1;whiteSpace=wrap;fontSize=16.7;align=center;spacing=9;strokeColor=#unset;rounded=1;absoluteArcSize=1;arcSize=9;fillColor=#FFFFFF;strokeWidth=NaN;lucidId=Ev-.zVaClFaw;shadow=1;" vertex="1" parent="1">
          <mxGeometry x="989" y="1133" width="58" height="37" as="geometry" />
        </mxCell>
        <mxCell id="VW0d0hes_iw_Q88u06iS-155" value="" style="edgeStyle=entityRelationEdgeStyle;fontSize=12;html=1;endArrow=ERmandOne;startArrow=ERmandOne;rounded=0;exitX=1;exitY=0.5;exitDx=0;exitDy=0;entryX=0;entryY=0.5;entryDx=0;entryDy=0;" edge="1" parent="1" source="VW0d0hes_iw_Q88u06iS-152" target="VW0d0hes_iw_Q88u06iS-153">
          <mxGeometry width="100" height="100" relative="1" as="geometry">
            <mxPoint x="762" y="1090" as="sourcePoint" />
            <mxPoint x="862" y="990" as="targetPoint" />
          </mxGeometry>
        </mxCell>
        <mxCell id="VW0d0hes_iw_Q88u06iS-156" value="E9" style="html=1;overflow=block;blockSpacing=1;whiteSpace=wrap;fontSize=16.7;align=center;spacing=9;strokeColor=#unset;rounded=1;absoluteArcSize=1;arcSize=9;fillColor=#FFFFFF;strokeWidth=NaN;lucidId=Ev-.UOXe~5~G;shadow=1;" vertex="1" parent="1">
          <mxGeometry x="1067" y="668" width="58" height="37" as="geometry" />
        </mxCell>
        <mxCell id="VW0d0hes_iw_Q88u06iS-157" value="E17" style="html=1;overflow=block;blockSpacing=1;whiteSpace=wrap;fontSize=16.7;align=center;spacing=9;strokeColor=#unset;rounded=1;absoluteArcSize=1;arcSize=9;fillColor=#FFFFFF;strokeWidth=NaN;lucidId=Ev-.zVaClFaw;shadow=1;" vertex="1" parent="1">
          <mxGeometry x="1215" y="668" width="58" height="37" as="geometry" />
        </mxCell>
        <mxCell id="VW0d0hes_iw_Q88u06iS-159" value="" style="edgeStyle=entityRelationEdgeStyle;fontSize=12;html=1;endArrow=ERoneToMany;startArrow=ERmandOne;rounded=0;entryX=0;entryY=0.5;entryDx=0;entryDy=0;" edge="1" parent="1" source="VW0d0hes_iw_Q88u06iS-156" target="VW0d0hes_iw_Q88u06iS-157">
          <mxGeometry width="100" height="100" relative="1" as="geometry">
            <mxPoint x="872" y="658" as="sourcePoint" />
            <mxPoint x="972" y="558" as="targetPoint" />
          </mxGeometry>
        </mxCell>
        <mxCell id="VW0d0hes_iw_Q88u06iS-160" value="E11" style="html=1;overflow=block;blockSpacing=1;whiteSpace=wrap;fontSize=16.7;align=center;spacing=9;strokeColor=#unset;rounded=1;absoluteArcSize=1;arcSize=9;fillColor=#FFFFFF;strokeWidth=NaN;lucidId=Ev-.UOXe~5~G;shadow=1;" vertex="1" parent="1">
          <mxGeometry x="1067" y="719.5" width="58" height="37" as="geometry" />
        </mxCell>
        <mxCell id="VW0d0hes_iw_Q88u06iS-161" value="E12" style="html=1;overflow=block;blockSpacing=1;whiteSpace=wrap;fontSize=16.7;align=center;spacing=9;strokeColor=#unset;rounded=1;absoluteArcSize=1;arcSize=9;fillColor=#FFFFFF;strokeWidth=NaN;lucidId=Ev-.zVaClFaw;shadow=1;" vertex="1" parent="1">
          <mxGeometry x="1215" y="719.5" width="58" height="37" as="geometry" />
        </mxCell>
        <mxCell id="VW0d0hes_iw_Q88u06iS-163" value="" style="edgeStyle=entityRelationEdgeStyle;fontSize=12;html=1;endArrow=ERzeroToMany;startArrow=ERmandOne;rounded=0;entryX=0;entryY=0.5;entryDx=0;entryDy=0;" edge="1" parent="1" source="VW0d0hes_iw_Q88u06iS-160" target="VW0d0hes_iw_Q88u06iS-161">
          <mxGeometry width="100" height="100" relative="1" as="geometry">
            <mxPoint x="1037" y="705" as="sourcePoint" />
            <mxPoint x="1137" y="605" as="targetPoint" />
          </mxGeometry>
        </mxCell>
        <mxCell id="VW0d0hes_iw_Q88u06iS-164" value="E11" style="html=1;overflow=block;blockSpacing=1;whiteSpace=wrap;fontSize=16.7;align=center;spacing=9;strokeColor=#unset;rounded=1;absoluteArcSize=1;arcSize=9;fillColor=#FFFFFF;strokeWidth=NaN;lucidId=Ev-.UOXe~5~G;shadow=1;" vertex="1" parent="1">
          <mxGeometry x="1067" y="771" width="58" height="37" as="geometry" />
        </mxCell>
        <mxCell id="VW0d0hes_iw_Q88u06iS-165" value="E14" style="html=1;overflow=block;blockSpacing=1;whiteSpace=wrap;fontSize=16.7;align=center;spacing=9;strokeColor=#unset;rounded=1;absoluteArcSize=1;arcSize=9;fillColor=#FFFFFF;strokeWidth=NaN;lucidId=Ev-.zVaClFaw;shadow=1;" vertex="1" parent="1">
          <mxGeometry x="1215" y="771" width="58" height="37" as="geometry" />
        </mxCell>
        <mxCell id="VW0d0hes_iw_Q88u06iS-166" value="" style="edgeStyle=entityRelationEdgeStyle;fontSize=12;html=1;endArrow=ERzeroToMany;startArrow=ERmandOne;rounded=0;entryX=0;entryY=0.5;entryDx=0;entryDy=0;" edge="1" parent="1" source="VW0d0hes_iw_Q88u06iS-164" target="VW0d0hes_iw_Q88u06iS-165">
          <mxGeometry width="100" height="100" relative="1" as="geometry">
            <mxPoint x="1037" y="756.5" as="sourcePoint" />
            <mxPoint x="1137" y="656.5" as="targetPoint" />
          </mxGeometry>
        </mxCell>
        <mxCell id="VW0d0hes_iw_Q88u06iS-167" value="E11" style="html=1;overflow=block;blockSpacing=1;whiteSpace=wrap;fontSize=16.7;align=center;spacing=9;strokeColor=#unset;rounded=1;absoluteArcSize=1;arcSize=9;fillColor=#FFFFFF;strokeWidth=NaN;lucidId=Ev-.UOXe~5~G;shadow=1;" vertex="1" parent="1">
          <mxGeometry x="1067" y="823" width="58" height="37" as="geometry" />
        </mxCell>
        <mxCell id="VW0d0hes_iw_Q88u06iS-168" value="E16" style="html=1;overflow=block;blockSpacing=1;whiteSpace=wrap;fontSize=16.7;align=center;spacing=9;strokeColor=#unset;rounded=1;absoluteArcSize=1;arcSize=9;fillColor=#FFFFFF;strokeWidth=NaN;lucidId=Ev-.zVaClFaw;shadow=1;" vertex="1" parent="1">
          <mxGeometry x="1215" y="823" width="58" height="37" as="geometry" />
        </mxCell>
        <mxCell id="VW0d0hes_iw_Q88u06iS-171" value="" style="edgeStyle=entityRelationEdgeStyle;fontSize=12;html=1;endArrow=ERmany;rounded=0;" edge="1" parent="1" source="VW0d0hes_iw_Q88u06iS-167" target="VW0d0hes_iw_Q88u06iS-168">
          <mxGeometry width="100" height="100" relative="1" as="geometry">
            <mxPoint x="1037" y="705" as="sourcePoint" />
            <mxPoint x="1137" y="605" as="targetPoint" />
          </mxGeometry>
        </mxCell>
        <mxCell id="VW0d0hes_iw_Q88u06iS-172" value="E11" style="html=1;overflow=block;blockSpacing=1;whiteSpace=wrap;fontSize=16.7;align=center;spacing=9;strokeColor=#unset;rounded=1;absoluteArcSize=1;arcSize=9;fillColor=#FFFFFF;strokeWidth=NaN;lucidId=Ev-.UOXe~5~G;shadow=1;" vertex="1" parent="1">
          <mxGeometry x="1067" y="874" width="58" height="37" as="geometry" />
        </mxCell>
        <mxCell id="VW0d0hes_iw_Q88u06iS-173" value="E17" style="html=1;overflow=block;blockSpacing=1;whiteSpace=wrap;fontSize=16.7;align=center;spacing=9;strokeColor=#unset;rounded=1;absoluteArcSize=1;arcSize=9;fillColor=#FFFFFF;strokeWidth=NaN;lucidId=Ev-.zVaClFaw;shadow=1;" vertex="1" parent="1">
          <mxGeometry x="1215" y="874" width="58" height="37" as="geometry" />
        </mxCell>
        <mxCell id="VW0d0hes_iw_Q88u06iS-175" value="" style="edgeStyle=entityRelationEdgeStyle;fontSize=12;html=1;endArrow=ERoneToMany;startArrow=ERmandOne;rounded=0;entryX=0;entryY=0.5;entryDx=0;entryDy=0;" edge="1" parent="1" source="VW0d0hes_iw_Q88u06iS-172" target="VW0d0hes_iw_Q88u06iS-173">
          <mxGeometry width="100" height="100" relative="1" as="geometry">
            <mxPoint x="807" y="1273" as="sourcePoint" />
            <mxPoint x="907" y="1173" as="targetPoint" />
          </mxGeometry>
        </mxCell>
        <mxCell id="VW0d0hes_iw_Q88u06iS-176" value="E12" style="html=1;overflow=block;blockSpacing=1;whiteSpace=wrap;fontSize=16.7;align=center;spacing=9;strokeColor=#unset;rounded=1;absoluteArcSize=1;arcSize=9;fillColor=#FFFFFF;strokeWidth=NaN;lucidId=Ev-.UOXe~5~G;shadow=1;" vertex="1" parent="1">
          <mxGeometry x="1067" y="926" width="58" height="37" as="geometry" />
        </mxCell>
        <mxCell id="VW0d0hes_iw_Q88u06iS-177" value="E13" style="html=1;overflow=block;blockSpacing=1;whiteSpace=wrap;fontSize=16.7;align=center;spacing=9;strokeColor=#unset;rounded=1;absoluteArcSize=1;arcSize=9;fillColor=#FFFFFF;strokeWidth=NaN;lucidId=Ev-.zVaClFaw;shadow=1;" vertex="1" parent="1">
          <mxGeometry x="1215" y="926" width="58" height="37" as="geometry" />
        </mxCell>
        <mxCell id="VW0d0hes_iw_Q88u06iS-179" value="" style="edgeStyle=entityRelationEdgeStyle;fontSize=12;html=1;endArrow=ERzeroToMany;startArrow=ERmandOne;rounded=0;exitX=0;exitY=0.5;exitDx=0;exitDy=0;" edge="1" parent="1" source="VW0d0hes_iw_Q88u06iS-177" target="VW0d0hes_iw_Q88u06iS-176">
          <mxGeometry width="100" height="100" relative="1" as="geometry">
            <mxPoint x="791" y="1285" as="sourcePoint" />
            <mxPoint x="1195" y="1026" as="targetPoint" />
          </mxGeometry>
        </mxCell>
        <mxCell id="VW0d0hes_iw_Q88u06iS-180" value="E12" style="html=1;overflow=block;blockSpacing=1;whiteSpace=wrap;fontSize=16.7;align=center;spacing=9;strokeColor=#unset;rounded=1;absoluteArcSize=1;arcSize=9;fillColor=#FFFFFF;strokeWidth=NaN;lucidId=Ev-.UOXe~5~G;shadow=1;" vertex="1" parent="1">
          <mxGeometry x="1067" y="978" width="58" height="37" as="geometry" />
        </mxCell>
        <mxCell id="VW0d0hes_iw_Q88u06iS-181" value="E16" style="html=1;overflow=block;blockSpacing=1;whiteSpace=wrap;fontSize=16.7;align=center;spacing=9;strokeColor=#unset;rounded=1;absoluteArcSize=1;arcSize=9;fillColor=#FFFFFF;strokeWidth=NaN;lucidId=Ev-.zVaClFaw;shadow=1;" vertex="1" parent="1">
          <mxGeometry x="1215" y="978" width="58" height="37" as="geometry" />
        </mxCell>
        <mxCell id="VW0d0hes_iw_Q88u06iS-182" value="" style="edgeStyle=entityRelationEdgeStyle;fontSize=12;html=1;endArrow=ERzeroToMany;startArrow=ERmandOne;rounded=0;exitX=0;exitY=0.5;exitDx=0;exitDy=0;" edge="1" parent="1" source="VW0d0hes_iw_Q88u06iS-181" target="VW0d0hes_iw_Q88u06iS-180">
          <mxGeometry width="100" height="100" relative="1" as="geometry">
            <mxPoint x="791" y="1337" as="sourcePoint" />
            <mxPoint x="1195" y="1078" as="targetPoint" />
          </mxGeometry>
        </mxCell>
        <mxCell id="VW0d0hes_iw_Q88u06iS-183" value="E14" style="html=1;overflow=block;blockSpacing=1;whiteSpace=wrap;fontSize=16.7;align=center;spacing=9;strokeColor=#unset;rounded=1;absoluteArcSize=1;arcSize=9;fillColor=#FFFFFF;strokeWidth=NaN;lucidId=Ev-.UOXe~5~G;shadow=1;" vertex="1" parent="1">
          <mxGeometry x="1067" y="1029" width="58" height="37" as="geometry" />
        </mxCell>
        <mxCell id="VW0d0hes_iw_Q88u06iS-184" value="E17" style="html=1;overflow=block;blockSpacing=1;whiteSpace=wrap;fontSize=16.7;align=center;spacing=9;strokeColor=#unset;rounded=1;absoluteArcSize=1;arcSize=9;fillColor=#FFFFFF;strokeWidth=NaN;lucidId=Ev-.zVaClFaw;shadow=1;" vertex="1" parent="1">
          <mxGeometry x="1215" y="1029" width="58" height="37" as="geometry" />
        </mxCell>
        <mxCell id="VW0d0hes_iw_Q88u06iS-185" value="" style="edgeStyle=entityRelationEdgeStyle;fontSize=12;html=1;endArrow=ERzeroToMany;startArrow=ERmandOne;rounded=0;exitX=0;exitY=0.5;exitDx=0;exitDy=0;" edge="1" parent="1" source="VW0d0hes_iw_Q88u06iS-184" target="VW0d0hes_iw_Q88u06iS-183">
          <mxGeometry width="100" height="100" relative="1" as="geometry">
            <mxPoint x="791" y="1388" as="sourcePoint" />
            <mxPoint x="1195" y="1129" as="targetPoint" />
          </mxGeometry>
        </mxCell>
        <mxCell id="VW0d0hes_iw_Q88u06iS-186" value="E15" style="html=1;overflow=block;blockSpacing=1;whiteSpace=wrap;fontSize=16.7;align=center;spacing=9;strokeColor=#unset;rounded=1;absoluteArcSize=1;arcSize=9;fillColor=#FFFFFF;strokeWidth=NaN;lucidId=Ev-.UOXe~5~G;shadow=1;" vertex="1" parent="1">
          <mxGeometry x="1067" y="1081" width="58" height="37" as="geometry" />
        </mxCell>
        <mxCell id="VW0d0hes_iw_Q88u06iS-187" value="E16" style="html=1;overflow=block;blockSpacing=1;whiteSpace=wrap;fontSize=16.7;align=center;spacing=9;strokeColor=#unset;rounded=1;absoluteArcSize=1;arcSize=9;fillColor=#FFFFFF;strokeWidth=NaN;lucidId=Ev-.zVaClFaw;shadow=1;" vertex="1" parent="1">
          <mxGeometry x="1215" y="1081" width="58" height="37" as="geometry" />
        </mxCell>
        <mxCell id="VW0d0hes_iw_Q88u06iS-189" value="" style="edgeStyle=entityRelationEdgeStyle;fontSize=12;html=1;endArrow=ERmany;rounded=0;entryX=1;entryY=0.5;entryDx=0;entryDy=0;exitX=0;exitY=0.5;exitDx=0;exitDy=0;" edge="1" parent="1" source="VW0d0hes_iw_Q88u06iS-187" target="VW0d0hes_iw_Q88u06iS-186">
          <mxGeometry width="100" height="100" relative="1" as="geometry">
            <mxPoint x="791" y="1285" as="sourcePoint" />
            <mxPoint x="1105" y="1209" as="targetPoint" />
          </mxGeometry>
        </mxCell>
        <mxCell id="VW0d0hes_iw_Q88u06iS-190" value="E15" style="html=1;overflow=block;blockSpacing=1;whiteSpace=wrap;fontSize=16.7;align=center;spacing=9;strokeColor=#unset;rounded=1;absoluteArcSize=1;arcSize=9;fillColor=#FFFFFF;strokeWidth=NaN;lucidId=Ev-.UOXe~5~G;shadow=1;" vertex="1" parent="1">
          <mxGeometry x="1067" y="1133" width="58" height="37" as="geometry" />
        </mxCell>
        <mxCell id="VW0d0hes_iw_Q88u06iS-191" value="E17" style="html=1;overflow=block;blockSpacing=1;whiteSpace=wrap;fontSize=16.7;align=center;spacing=9;strokeColor=#unset;rounded=1;absoluteArcSize=1;arcSize=9;fillColor=#FFFFFF;strokeWidth=NaN;lucidId=Ev-.zVaClFaw;shadow=1;" vertex="1" parent="1">
          <mxGeometry x="1215" y="1133" width="58" height="37" as="geometry" />
        </mxCell>
        <mxCell id="VW0d0hes_iw_Q88u06iS-193" value="" style="edgeStyle=entityRelationEdgeStyle;fontSize=12;html=1;endArrow=ERmandOne;startArrow=ERmandOne;rounded=0;" edge="1" parent="1" source="VW0d0hes_iw_Q88u06iS-190" target="VW0d0hes_iw_Q88u06iS-191">
          <mxGeometry width="100" height="100" relative="1" as="geometry">
            <mxPoint x="905" y="903" as="sourcePoint" />
            <mxPoint x="995" y="903" as="targetPoint" />
            <Array as="points">
              <mxPoint x="1167" y="1149" />
            </Array>
          </mxGeometry>
        </mxCell>
      </root>
    </mxGraphModel>
  </diagram>
</mxfile>
